<svg width="41" height="40" viewBox="0 0 41 40" fill="none" xmlns="http://www.w3.org/2000/svg">
<g id="Icon - Mail">
<circle id="Icon Bg" cx="20.4597" cy="20.0004" r="20" fill="#F9F7F7"/>
<g id="airplane (1) 2" clip-path="url(#clip0_82_1794)">
<g id="Group">
<g id="Group_2">
<path id="Vector" d="M24.6274 13.747L12.9185 10.0977L11.452 11.5262L20.5328 17.8201L20.1982 18.3027L23.9607 14.7696L24.2778 14.8684L24.4526 14.3077L24.6274 13.747Z" fill="#FFC34D"/>
</g>
<path id="Vector_2" d="M22.2712 19.7443L28.5407 29.0415L30.0001 27.6201L26.29 15.66L25.7291 15.834V15.8339V15.834L25.1682 16.0079L25.2596 16.3025L21.6729 19.8817L21.1859 20.2102L21.4681 20.6286L22.2712 19.7443Z" fill="#FF884D"/>
<path id="Vector_3" d="M13.9526 26.0903L16.0121 29.9023L17.1061 28.953L17.5812 23.463L13.9526 26.0903Z" fill="#FF884D"/>
<path id="Vector_4" d="M13.3525 25.6088L10 23.6536L10.9196 22.5433L16.2831 22.313L13.3525 25.6088Z" fill="#FFC34D"/>
<path id="Vector_5" d="M28.4756 11.1439L26.7071 13.358L22.7408 18.2382L12.5314 27.238C12.5302 27.2322 12.531 27.2275 12.5318 27.224L12.6555 26.4988C12.7228 26.1061 12.8892 25.7338 13.1371 25.4221L15.8406 22.0194C18.6964 18.6322 21.3145 15.9835 24.594 13.163L25.2145 12.6293C25.2145 12.6293 28.4533 11.1208 28.4756 11.1439Z" fill="#E6F7FF"/>
<path id="Vector_6" d="M27.3758 14.8485L26.8261 15.4546C23.9202 18.6589 21.2037 21.2062 17.7426 23.9719L14.139 26.6836C13.8857 26.8743 13.6014 27.0102 13.2945 27.0881L12.5803 27.269C12.5764 27.2702 12.5701 27.2713 12.5631 27.2698C12.5525 27.2596 12.5416 27.249 12.5314 27.2384V27.2381L23.109 16.877L26.7044 13.3552L28.3035 12.1069C28.3258 12.1296 27.3758 14.8485 27.3758 14.8485Z" fill="#B3D9FF"/>
<path id="Vector_7" d="M29.4175 10.6975L26.7042 13.3552L26.7011 13.3521C26.3848 13.0255 25.9737 12.7914 25.5101 12.6923L25.2145 12.6293L26.6189 11.4214C27.1232 10.9876 27.7414 10.7045 28.4074 10.6035L28.9207 10.5252C29.0749 10.5017 29.2265 10.5405 29.3486 10.6305C29.3615 10.6423 29.3741 10.6544 29.3866 10.6666C29.3972 10.6767 29.4074 10.6869 29.4175 10.6975Z" fill="#99AAFF"/>
<path id="Vector_8" d="M29.5766 11.1983L29.485 11.7096C29.366 12.3725 29.0672 12.9836 28.6205 13.4762L27.3758 14.8485L27.3206 14.5513C27.2349 14.0909 27.016 13.6778 26.7043 13.3552L29.4176 10.6975C29.44 10.7202 29.4615 10.7437 29.4826 10.768C29.5695 10.8925 29.6044 11.0448 29.5766 11.1983Z" fill="#8080FF"/>
</g>
</g>
</g>
<defs>
<clipPath id="clip0_82_1794">
<rect width="20" height="20" fill="white" transform="translate(10 10)"/>
</clipPath>
</defs>
</svg>
