<svg width="40" height="40" viewBox="0 0 40 40" fill="none" xmlns="http://www.w3.org/2000/svg">
<g id="Icon - Chart">
<circle id="Icon Bg" cx="20" cy="20" r="20" fill="#F9F7F7"/>
<g id="delivery-man 1" clip-path="url(#clip0_82_1095)">
<g id="Group">
<g id="Group_2">
<path id="Vector" fill-rule="evenodd" clip-rule="evenodd" d="M24.9229 18.9165H30.0002V20.6803C30.0002 21.1164 29.6443 21.4726 29.2085 21.4726H27.3822L26.2929 22.0228L24.9229 21.4726V18.9165H24.9229Z" fill="#FFE07D"/>
</g>
<g id="Group_3">
<path id="Vector_2" fill-rule="evenodd" clip-rule="evenodd" d="M25.7145 16.3571H29.2085C29.6442 16.3571 30.0001 16.7132 30.0001 17.1493V18.4599H24.9229V17.1493C24.9229 16.7132 25.2787 16.3571 25.7145 16.3571Z" fill="#FFE07D"/>
</g>
<g id="Group_4">
<path id="Vector_3" fill-rule="evenodd" clip-rule="evenodd" d="M24.9229 18.0649H30.0001V19.3104H24.9229V18.0649Z" fill="#FF8086"/>
</g>
<g id="Group_5">
<path id="Vector_4" fill-rule="evenodd" clip-rule="evenodd" d="M28.9401 18.0649H29.5903H29.9998V17.1494C29.9998 16.8514 29.8333 16.5911 29.5903 16.4564C29.4763 16.3936 29.3462 16.3571 29.2082 16.3571H28.1484C28.5842 16.3571 28.9401 16.7132 28.9401 17.1493V18.0649H28.9401Z" fill="#FFC269"/>
</g>
<g id="Group_6">
<path id="Vector_5" fill-rule="evenodd" clip-rule="evenodd" d="M28.9402 19.3104H29.5904H29.9999V18.9166V18.4599V18.0649H29.5904H28.9402V18.4599V18.9166V19.3104Z" fill="#F76672"/>
</g>
<g id="Group_7">
<path id="Vector_6" fill-rule="evenodd" clip-rule="evenodd" d="M28.9401 19.3104V20.6804C28.9401 21.1165 28.5842 21.4727 28.1484 21.4727H29.2082C29.3462 21.4727 29.4762 21.4373 29.5903 21.3745C29.8333 21.2386 29.9998 20.9784 29.9998 20.6804V19.3104H29.5903H28.9401Z" fill="#FFC269"/>
</g>
<g id="Group_8">
<path id="Vector_7" fill-rule="evenodd" clip-rule="evenodd" d="M24.9227 21.4727H27.382V22.604C27.382 22.8757 27.1596 23.0972 26.8893 23.0972H18.8818C18.8818 22.386 18.8818 22.0241 19.4259 22.0241L20.5096 22.0229C21.1918 22.0218 21.6389 21.8471 21.8887 21.4727H24.9227V21.4727Z" fill="#6F6571"/>
</g>
<g id="Group_9">
<path id="Vector_8" fill-rule="evenodd" clip-rule="evenodd" d="M19.8478 23.0972H26.8894C27.3023 23.8164 27.6343 24.6806 27.3479 26.3337C26.8688 24.7034 22.0026 25.3542 21.503 27.2355H16.1337C15.9306 26.7755 15.739 26.3211 15.5713 25.8622H17.085C20.1466 24.7068 19.1622 25.2217 19.8478 23.0972Z" fill="#FFE07D"/>
</g>
<g id="Group_10">
<path id="Vector_9" fill-rule="evenodd" clip-rule="evenodd" d="M19.4131 18.678C19.518 19.2306 19.6606 19.7751 19.8203 20.2386L21.3682 20.8451L23.0941 20.2386C23.0336 16.9724 21.8131 15.4061 20.775 14.8993C20.4009 14.6144 20.0176 14.5071 20.0176 14.5071C20.0176 14.5071 19.5134 15.3137 19.4872 15.3137C19.2933 15.7749 19.2203 16.3765 19.2328 17.0261L19.4131 18.678Z" fill="#ECEAEC"/>
</g>
<g id="Group_11">
<path id="Vector_10" fill-rule="evenodd" clip-rule="evenodd" d="M23.0942 20.2385H19.8203C19.0663 20.3207 18.1389 20.895 18.1389 22.6736V24.5379L18.8819 24.9804L19.8477 24.5379V23.0971C19.8477 22.3859 19.8477 22.024 20.3918 22.024L21.4754 22.0229C22.1576 22.0217 22.6047 21.847 22.8545 21.4726C23.0474 21.1838 23.1215 20.7762 23.0942 20.2385Z" fill="#FF8086"/>
</g>
<g id="Group_12">
<path id="Vector_11" fill-rule="evenodd" clip-rule="evenodd" d="M23.0941 20.2385C23.0336 16.9723 21.8131 15.406 20.775 14.8992C20.6211 15.0076 20.4499 15.0967 20.2617 15.1629C21.1811 15.8581 22.1028 17.4119 22.1553 20.2385H23.0941Z" fill="#DAD8DB"/>
</g>
<g id="Group_13">
<path id="Vector_12" fill-rule="evenodd" clip-rule="evenodd" d="M23.0942 20.2385H22.1554C22.1828 20.7762 22.1086 21.1838 21.9158 21.4726C21.7584 21.709 21.5212 21.9087 21.196 22.0229H21.4755C22.1577 22.0218 22.6048 21.8471 22.8546 21.4726C23.0474 21.1838 23.1215 20.7762 23.0942 20.2385Z" fill="#F76672"/>
</g>
<g id="Group_14">
<path id="Vector_13" fill-rule="evenodd" clip-rule="evenodd" d="M21.5029 27.2355C21.5029 25.5471 22.841 24.2023 24.4916 24.2023C25.8342 24.2023 26.9703 25.0927 27.3479 26.3337C27.4255 26.5882 27.4711 26.8588 27.4791 27.1397C27.4825 27.2493 27.4072 27.2355 27.3045 27.2355C25.3711 27.2355 23.4364 27.2344 21.5029 27.2355Z" fill="#FF8086"/>
</g>
<g id="Group_15">
<path id="Vector_14" fill-rule="evenodd" clip-rule="evenodd" d="M22.2546 27.2356H26.8038C26.7388 28.4617 25.7452 29.4366 24.5292 29.4366C23.3132 29.4366 22.3196 28.4617 22.2546 27.2356Z" fill="#6F6571"/>
</g>
<g id="Group_16">
<path id="Vector_15" fill-rule="evenodd" clip-rule="evenodd" d="M10.7025 26.7504L14.6162 27.6511C14.3676 28.7322 13.2896 29.4081 12.2093 29.1592C11.128 28.9103 10.4538 27.8315 10.7025 26.7504Z" fill="#6F6571"/>
</g>
<g id="Group_17">
<path id="Vector_16" fill-rule="evenodd" clip-rule="evenodd" d="M10.4095 25.6533C10.9628 24.8485 11.9232 24.3815 12.9271 24.482C14.6975 24.8565 15.2735 25.9147 15.3887 27.2345C15.3864 27.4137 15.367 27.5941 15.3282 27.7745C15.3168 27.8247 15.2838 27.8042 15.229 27.7916L14.6164 27.6511L10.7027 26.7504L10.4095 26.6831L10 26.5883C10.0787 26.2435 10.2202 25.9285 10.4095 25.6533Z" fill="#ECEAEC"/>
</g>
<g id="Group_18">
<path id="Vector_17" fill-rule="evenodd" clip-rule="evenodd" d="M12.9236 24.4774L14.5046 19.0067L15.2164 18.6882L16.0126 19.0067C14.9666 21.9065 15.2586 23.9305 15.9647 25.8622C16.1335 26.3211 16.3252 26.7755 16.5271 27.2355H15.3898L12.9236 24.4774Z" fill="#FF8086"/>
</g>
<g id="Group_19">
<path id="Vector_18" fill-rule="evenodd" clip-rule="evenodd" d="M17.8196 12.8728L19.6744 12.4778C19.8626 12.4949 20.4011 12.947 20.4011 13.2301L20.0064 15.2371C19.8421 15.2862 19.6676 15.3136 19.4874 15.3136C18.4995 15.3136 17.6987 14.511 17.6987 13.5224C17.6987 13.2929 17.7409 13.0737 17.8196 12.8728Z" fill="#FFECE4"/>
</g>
<g id="Group_20">
<path id="Vector_19" fill-rule="evenodd" clip-rule="evenodd" d="M17.2207 12.8728C17.2207 11.5965 18.2314 10.5634 19.4793 10.5634C20.7272 10.5634 21.7379 11.5965 21.7379 12.8728C21.7379 13.7153 21.3957 14.4643 20.7751 14.8992C20.5538 15.0556 20.296 15.1709 20.0063 15.2371V13.2302C20.0063 12.947 19.8626 12.89 19.6743 12.8728H17.8196H17.2207V12.8728Z" fill="#FF8086"/>
</g>
<g id="Group_21">
<path id="Vector_20" fill-rule="evenodd" clip-rule="evenodd" d="M18.2974 10.9047C18.6407 10.6878 19.0457 10.5634 19.4791 10.5634C20.7271 10.5634 21.7377 11.5965 21.7377 12.8728C21.7377 13.7153 21.3955 14.4643 20.7749 14.8992C20.6175 15.01 20.443 15.1002 20.2514 15.1664C20.7099 14.7017 20.9586 14.035 20.9586 13.2998C20.9586 11.9664 19.9012 10.8853 18.5973 10.8853C18.4958 10.8853 18.3954 10.891 18.2974 10.9047Z" fill="#F76672"/>
</g>
<g id="Group_22">
<path id="Vector_21" fill-rule="evenodd" clip-rule="evenodd" d="M18.1389 24.5378H19.8477V25.6144C19.8477 25.845 19.7222 25.8621 19.5374 25.8621H17.0849C17.0358 24.7821 17.6894 24.5378 18.1389 24.5378Z" fill="#6F6571"/>
</g>
<g id="Group_23">
<path id="Vector_22" fill-rule="evenodd" clip-rule="evenodd" d="M15.9648 25.8621C15.2587 23.9305 14.9666 21.9064 16.0127 19.0067H15.4263C15.4241 19.0067 15.4218 19.0067 15.4195 19.0067H15.2085C14.1625 21.9064 14.4533 23.9305 15.1605 25.8621C15.3282 26.3211 15.5199 26.7754 15.7229 27.2355H16.1336H16.5271C16.3252 26.7754 16.1336 26.321 15.9648 25.8621Z" fill="#F76672"/>
</g>
<g id="Group_24">
<path id="Vector_23" fill-rule="evenodd" clip-rule="evenodd" d="M15.3886 27.2344L12.9269 24.4819C12.6726 24.4568 12.4205 24.4671 12.1775 24.5116L14.5433 27.1567C14.541 27.3108 14.5262 27.4672 14.4966 27.6236L14.6163 27.651L15.2289 27.7915C15.2837 27.804 15.3167 27.8246 15.3282 27.7743C15.3669 27.594 15.3863 27.4136 15.3886 27.2344Z" fill="#DAD8DB"/>
</g>
<g id="Group_25">
<path id="Vector_24" fill-rule="evenodd" clip-rule="evenodd" d="M26.8892 23.0972H19.8477V23.7171H25.6333C26.1044 23.7171 26.328 23.9203 26.5117 24.3324C26.6702 24.6897 26.6737 24.8062 26.7455 25.2377C27.0159 25.5517 27.2235 25.9238 27.3478 26.3337C27.6341 24.6806 27.3022 23.8164 26.8892 23.0972Z" fill="#FFC269"/>
</g>
<g id="Group_26">
<path id="Vector_25" fill-rule="evenodd" clip-rule="evenodd" d="M26.7456 25.2377C26.1981 24.6018 25.3916 24.2023 24.4916 24.2023C24.2657 24.2023 24.0467 24.2274 23.8357 24.2742C25.1829 24.579 26.1251 25.7686 26.1662 27.1397C26.1684 27.215 26.1342 27.2321 26.0795 27.2355H26.8038H27.3046C27.4073 27.2355 27.4826 27.2493 27.4791 27.1397C27.4712 26.8588 27.4255 26.5882 27.348 26.3337C27.3457 26.3257 27.3434 26.3188 27.3411 26.312C27.3411 26.312 27.3411 26.312 27.3411 26.3109C27.2156 25.9101 27.0114 25.5459 26.7456 25.2377Z" fill="#F76672"/>
</g>
<g id="Group_27">
<path id="Vector_26" fill-rule="evenodd" clip-rule="evenodd" d="M14.4967 27.6237L10.7027 26.7504C10.6605 26.9296 10.6456 27.11 10.6525 27.2858L13.6639 27.9788L13.7826 28.0061C13.6708 28.497 13.3867 28.9046 13.0092 29.1797C13.7791 29.0439 14.4305 28.4617 14.6164 27.6511L14.4967 27.6237Z" fill="#5D5360"/>
</g>
<g id="Group_28">
<path id="Vector_27" fill-rule="evenodd" clip-rule="evenodd" d="M26.0794 27.2355H22.2546C22.2672 27.4752 22.3162 27.7059 22.395 27.9216H25.0596H25.784C25.7555 28.4582 25.5501 28.9456 25.2262 29.3258C26.1057 29.037 26.7524 28.2161 26.8037 27.2355H26.0794V27.2355Z" fill="#5D5360"/>
</g>
<g id="Group_29">
<path id="Vector_28" fill-rule="evenodd" clip-rule="evenodd" d="M27.3822 22.604V21.4727H25.8365V22.604C25.8365 22.8757 25.6141 23.0971 25.3438 23.0971H26.8894C27.1598 23.0972 27.3822 22.8757 27.3822 22.604Z" fill="#5D5360"/>
</g>
<g id="Group_30">
<path id="Vector_29" fill-rule="evenodd" clip-rule="evenodd" d="M17.7078 13.3306H19.2317C19.42 13.3477 19.5637 13.406 19.5637 13.6891V15.3113C19.7166 15.3045 19.8648 15.2794 20.0063 15.2371V13.2301C20.0063 12.947 19.8626 12.89 19.6743 12.8728H17.8196C17.7637 13.0167 17.7249 13.1708 17.7078 13.3306Z" fill="#FFDDCE"/>
</g>
<g id="Group_31">
<path id="Vector_30" fill-rule="evenodd" clip-rule="evenodd" d="M14.1749 17.284L16.3091 17.9896C16.4141 18.0831 16.2954 19.0376 16.2247 19.0067H14.5045H13.7437V17.4359C13.7437 17.1265 13.9045 17.195 14.1749 17.284Z" fill="#FFE07D"/>
</g>
<g id="Group_32">
<path id="Vector_31" fill-rule="evenodd" clip-rule="evenodd" d="M17.3039 19.0068H17.1248H16.2248C15.6453 19.0068 15.6282 18.0455 16.3092 17.9896L17.3039 17.9097L17.5708 18.4748L17.3039 19.0068Z" fill="#FFECE4"/>
</g>
<g id="Group_33">
<path id="Vector_32" fill-rule="evenodd" clip-rule="evenodd" d="M19.2329 17.026L19.5899 16.7189C20.4842 15.9483 21.6147 17.2486 20.4192 18.0249L19.4131 18.6779L18.9066 19.0067H17.304V17.9096L18.2998 17.8286L19.2329 17.026Z" fill="#FF8086"/>
</g>
<g id="Group_34">
<path id="Vector_33" fill-rule="evenodd" clip-rule="evenodd" d="M17.3039 19.0067V18.4747H17.0906H16.9754H16.7952H15.8952C15.861 18.4747 15.829 18.4725 15.7982 18.4656C15.7651 18.7304 15.9146 19.0067 16.2249 19.0067H17.1249H17.3039Z" fill="#FFDDCE"/>
</g>
<g id="Group_35">
<path id="Vector_34" fill-rule="evenodd" clip-rule="evenodd" d="M20.4192 18.025C21.1424 17.5546 21.0147 16.8937 20.6029 16.6151C20.636 16.9005 20.5002 17.2282 20.0896 17.4942L19.3059 18.0022L19.0846 18.1472L18.5781 18.4748H17.304V19.0068H18.9067L19.4131 18.678L20.4192 18.025Z" fill="#F76672"/>
</g>
<g id="Group_36">
<path id="Vector_35" fill-rule="evenodd" clip-rule="evenodd" d="M16.3092 17.9895L15.4503 17.7064C15.1628 18.0147 15.0237 18.6151 15.2085 19.0067H16.0126H16.2248C15.9145 19.0067 15.7651 18.7304 15.7982 18.4656C15.8278 18.2361 15.9933 18.0158 16.3092 17.9895Z" fill="#FFC269"/>
</g>
</g>
</g>
</g>
<defs>
<clipPath id="clip0_82_1095">
<rect width="20" height="20" fill="white" transform="translate(10 10)"/>
</clipPath>
</defs>
</svg>
