<svg width="40" height="40" viewBox="0 0 40 40" fill="none" xmlns="http://www.w3.org/2000/svg">
<g id="Icon - Command">
<circle id="Icon Bg" cx="20" cy="20" r="20" fill="#F9F7F7"/>
<g id="map 1" clip-path="url(#clip0_85_59)">
<g id="Group">
<path id="Vector" d="M29.9954 28.5816L28.4242 19.9249C28.4085 19.8385 28.3549 19.7637 28.2781 19.721L24.3233 17.5214C24.272 17.4928 24.2145 17.4814 24.158 17.4858L24.8775 26.7674L24.8533 26.7781L29.5863 28.9015C29.6248 28.9187 29.6658 28.9272 29.7065 28.9272C29.771 28.9272 29.8349 28.906 29.8874 28.8649C29.9733 28.7978 30.0148 28.6888 29.9954 28.5816Z" fill="#44C868"/>
<path id="Vector_2" d="M20.0001 19.6241L15.9553 17.5175C15.9069 17.4922 15.8531 17.4819 15.8002 17.4854C15.8142 17.4846 15.8283 17.4846 15.8423 17.4857L15.1228 26.7673L19.8799 28.9015C19.9183 28.9186 19.9592 28.9272 20.0001 28.9272V19.6241Z" fill="#44C868"/>
</g>
<g id="Group_2">
<path id="Vector_3" d="M15.8422 17.4855C15.7857 17.4812 15.7281 17.4925 15.6768 17.5211L11.722 19.7207C11.6452 19.7634 11.5916 19.8382 11.5759 19.9246L10.0047 28.5813C9.98527 28.6884 10.0268 28.7975 10.1127 28.8646C10.1653 28.9057 10.2291 28.927 10.2936 28.927C10.3343 28.927 10.3753 28.9185 10.4138 28.9012L15.121 26.7895L15.8422 17.4855Z" fill="#4CE166"/>
<path id="Vector_4" d="M24.1578 17.4852C24.1189 17.4882 24.0804 17.4986 24.0447 17.5172L20 19.6238V28.9269C20 28.9269 20 28.9269 20 28.9269C20.0409 28.9269 20.0819 28.9184 20.1202 28.9011L24.8773 26.767L24.1578 17.4852Z" fill="#4CE166"/>
</g>
<path id="Vector_5" d="M11.0997 22.5483L10.7805 24.3068L15.5069 21.8105L15.6166 20.3949L15.6348 20.1602L11.0997 22.5483Z" fill="#FFDB56"/>
<path id="Vector_6" d="M15.5495 21.2616L15.5069 21.8105L10.7806 24.3068L10.0047 28.5816C9.98527 28.6887 10.0268 28.7977 10.1127 28.8649C10.1653 28.906 10.2291 28.9272 10.2936 28.9272C10.3343 28.9272 10.3753 28.9187 10.4138 28.9015L15.121 26.7897L15.5495 21.2616Z" fill="#A8EEFC"/>
<g id="Group_3">
<path id="Vector_7" d="M20.0011 20.7842L15.6348 20.1599L15.5068 21.8103L19.9999 28.6337V26.1525L17.3188 21.9307L20.0011 22.2515V20.7842Z" fill="#FFBB24"/>
<path id="Vector_8" d="M27.9666 19.5476L26.0668 18.491L24.2683 18.9112L24.2908 19.2017L24.3796 20.3475L27.9666 19.5476Z" fill="#FFBB24"/>
</g>
<path id="Vector_9" d="M24.5392 22.4054L24.3689 20.2082L24.2684 18.9114L20.0012 20.7845V22.2518L22.7886 21.0397L24.5392 22.4054Z" fill="#FFDB56"/>
<path id="Vector_10" d="M29.9954 28.5815L29.6007 26.4071L24.3798 20.3477L24.5393 22.4054L29.8936 28.8594C29.975 28.7919 30.0143 28.686 29.9954 28.5815Z" fill="#FFBB24"/>
<path id="Vector_11" d="M20.0189 11.0728C17.7547 11.0728 15.9126 12.9133 15.9126 15.1757C15.9126 16.5751 16.577 18.0776 17.8874 19.6414C18.8499 20.7899 19.7993 21.5286 19.8392 21.5595C19.8921 21.6004 19.9555 21.6209 20.0189 21.6209C20.0823 21.6209 20.1457 21.6004 20.1985 21.5595C20.2385 21.5286 21.1879 20.7899 22.1503 19.6414C23.4608 18.0776 24.1252 16.5751 24.1252 15.1757C24.1251 12.9133 22.283 11.0728 20.0189 11.0728ZM21.5396 15.1756C21.5396 16.0148 20.8587 16.6951 20.0189 16.6951C19.179 16.6951 18.4981 16.0148 18.4981 15.1756C18.4981 14.3364 19.179 13.6562 20.0189 13.6562C20.8587 13.6562 21.5396 14.3365 21.5396 15.1756Z" fill="#FF4A4A"/>
<path id="Vector_12" d="M20.0188 11.0728C19.8393 11.0728 19.6626 11.0844 19.4891 11.1068C21.5041 11.3672 23.0658 13.0926 23.0658 15.1757C23.0658 16.5751 22.4014 18.0776 21.0909 19.6414C20.472 20.38 19.8589 20.9487 19.4892 21.2691C19.6944 21.4469 19.825 21.5485 19.8392 21.5595C19.8921 21.6004 19.9554 21.6209 20.0188 21.6209C20.0822 21.6209 20.1456 21.6004 20.1985 21.5595C20.2384 21.5286 21.1878 20.7899 22.1503 19.6414C23.4607 18.0776 24.1251 16.5751 24.1251 15.1757C24.125 12.9133 22.283 11.0728 20.0188 11.0728Z" fill="#E7343F"/>
<path id="Vector_13" d="M20.1202 28.9013L21.8892 28.1077L20 26.1526V28.927C20 28.927 20 28.927 20 28.927C20.0409 28.927 20.0818 28.9186 20.1202 28.9013Z" fill="#FFDB56"/>
<g id="Group_4">
<path id="Vector_14" d="M28.4241 19.9248C28.4085 19.8384 28.3549 19.7636 28.2781 19.7209L27.9668 19.5477L24.3798 20.3476L29.6007 26.407L28.4241 19.9248Z" fill="#1EA4E9"/>
<path id="Vector_15" d="M20 28.9271C20 28.9271 20 28.9271 20 28.9271V28.6338L15.5069 21.8104L15.1227 26.7673L19.8797 28.9014C19.9181 28.9186 19.9591 28.9271 20 28.9271Z" fill="#1EA4E9"/>
</g>
</g>
</g>
<defs>
<clipPath id="clip0_85_59">
<rect width="20" height="20" fill="white" transform="translate(10 10)"/>
</clipPath>
</defs>
</svg>
