<svg width="41" height="40" viewBox="0 0 41 40" fill="none" xmlns="http://www.w3.org/2000/svg">
<g id="Icon - Anchor">
<circle id="Icon Bg" cx="20.4597" cy="20.0001" r="20" fill="#F9F7F7"/>
<g id="boat 1" clip-path="url(#clip0_82_1785)">
<g id="Group">
<path id="Vector" d="M16.7383 21.4996H11.3484C11.0386 21.4996 10.7865 21.7517 10.7865 22.0615V23.3009C10.7865 23.4676 10.9216 23.6027 11.0883 23.6027C11.255 23.6027 11.3901 23.4676 11.3901 23.3009V22.1032H12.6698V23.3009C12.6698 23.4676 12.8049 23.6027 12.9716 23.6027C13.1383 23.6027 13.2734 23.4676 13.2734 23.3009V22.1032H14.5531V23.3009C14.5531 23.4676 14.6883 23.6027 14.8549 23.6027C15.0216 23.6027 15.1567 23.4676 15.1567 23.3009V22.1032H16.7383C16.9049 22.1032 17.0401 21.9681 17.0401 21.8014C17.0401 21.6348 16.905 21.4996 16.7383 21.4996Z" fill="#8FACE0"/>
<path id="Vector_2" d="M17.5895 19.7788C17.4229 19.7788 17.2878 19.6437 17.2878 19.477V17.855L16.708 17.4291C16.5737 17.3304 16.5447 17.1415 16.6435 17.0072C16.7422 16.8729 16.931 16.8439 17.0654 16.9427L17.6614 17.3805C17.8054 17.4863 17.8914 17.6561 17.8914 17.8348V19.477C17.8913 19.6437 17.7562 19.7788 17.5895 19.7788Z" fill="#6A61B2"/>
<path id="Vector_3" d="M19.145 17.355L19.7445 19.4771H22.7479L23.3474 17.355H19.145Z" fill="#8A94DB"/>
<path id="Vector_4" d="M22.3402 17.355L21.7407 19.4771H22.748L23.3474 17.355H22.3402Z" fill="#717ED4"/>
<path id="Vector_5" d="M21.2463 17.3606C21.0795 17.3606 20.9445 17.2255 20.9445 17.0588V12.2309C20.9445 12.0642 21.0796 11.9291 21.2463 11.9291C21.4129 11.9291 21.548 12.0642 21.548 12.2309V17.0588C21.5481 17.2255 21.413 17.3606 21.2463 17.3606Z" fill="#8FACE0"/>
<path id="Vector_6" d="M23.5236 16.1667H18.9689C18.8889 16.1667 18.831 16.2433 18.8528 16.3203L19.1451 17.355H23.3475L23.6398 16.3203C23.6615 16.2433 23.6036 16.1667 23.5236 16.1667Z" fill="#D6E0F4"/>
<path id="Vector_7" d="M23.5235 16.1667H22.5162C22.5963 16.1667 22.6541 16.2433 22.6324 16.3203L22.3401 17.355H23.3474L23.6396 16.3203C23.6614 16.2433 23.6035 16.1667 23.5235 16.1667Z" fill="#B8C9EA"/>
<path id="Vector_8" d="M20.95 19.4771H21.5425C21.5461 19.4585 21.5481 19.4394 21.5481 19.4199V17.355H20.9445V19.4199C20.9445 19.4394 20.9465 19.4585 20.95 19.4771Z" fill="#D6E0F4"/>
<path id="Vector_9" d="M16.7383 23.7145V19.6783C16.7383 19.5671 16.8284 19.4771 16.9395 19.4771H23.7329C23.965 19.4771 24.1774 19.6073 24.2827 19.8141L26.2686 23.7145H16.7383Z" fill="#D6E0F4"/>
<path id="Vector_10" d="M24.2827 19.8141C24.1774 19.6073 23.965 19.4771 23.7329 19.4771H22.6371C22.8692 19.4771 23.0816 19.6073 23.1869 19.8141L25.1727 23.7145H26.2686L24.2827 19.8141Z" fill="#B8C9EA"/>
<path id="Vector_11" d="M22.5035 20.8895L20.2836 22.3951C20.2436 22.4223 20.1964 22.4368 20.1481 22.4368H16.7383V23.7145H26.2686L24.8126 20.8549H22.6164C22.5761 20.8548 22.5368 20.8669 22.5035 20.8895Z" fill="#B8C9EA"/>
<path id="Vector_12" d="M29.2988 23.7146V24.7211C29.2988 25.0273 29.1869 25.3225 28.9843 25.5521C28.6373 25.9455 28.0894 26.6276 27.7977 27.3087C27.5997 27.7708 27.1463 28.0709 26.6436 28.0709H16.9036C16.7054 28.0709 16.5096 28.0288 16.3289 27.9474C15.4519 27.5523 12.6659 26.3256 11.1415 25.9826C10.766 25.8981 10.4983 25.5665 10.4983 25.1817V24.1721L29.2988 23.7146Z" fill="#E27F86"/>
<path id="Vector_13" d="M29.1477 25.318C29.2353 25.1634 29.2988 24.9341 29.2988 24.737V23.7146L20.6847 23.9293L20.4043 24.1194C20.3643 24.1466 20.3171 24.1721 20.2688 24.1721H10.4983V25.1817C10.4983 25.2947 10.5219 25.4029 10.5641 25.5018H27.7477C27.8258 25.5018 27.8693 25.5919 27.8206 25.6528C27.5571 25.9818 26.9426 26.7761 26.7145 27.3087C26.5166 27.7708 26.0632 28.071 25.5604 28.071H26.6436C27.1499 28.071 27.6009 27.7643 27.8016 27.2994C28.0943 26.6215 28.6388 25.9437 28.9843 25.5521C28.9989 25.5356 29.0132 25.519 29.0265 25.5016C29.0539 25.4654 29.0901 25.4223 29.1428 25.3267L29.1477 25.318Z" fill="#DF646E"/>
<path id="Vector_14" d="M22.6242 21.7536L20.4043 23.2593C20.3643 23.2864 20.3171 23.3009 20.2688 23.3009H10.4802C10.215 23.3009 10 23.5159 10 23.7811V24.1615C10 24.4267 10.215 24.6416 10.4802 24.6416H29.0138C29.5585 24.6416 30 24.2001 30 23.6555V22.7052C30 22.1605 29.5585 21.719 29.0138 21.719H22.7372C22.6969 21.719 22.6576 21.7311 22.6242 21.7536Z" fill="#6A61B2"/>
<path id="Vector_15" d="M29.0137 21.719H27.9901C28.5348 21.719 28.9763 22.1605 28.9763 22.7052V23.6555C28.9763 24.2001 28.5348 24.6416 27.9901 24.6416H29.0137C29.5584 24.6416 29.9999 24.2001 29.9999 23.6555V22.7052C29.9999 22.1605 29.5584 21.719 29.0137 21.719Z" fill="#514898"/>
<path id="Vector_16" d="M19.6974 21.5492C19.7369 21.1524 19.4472 20.7987 19.0504 20.7592C18.6536 20.7197 18.2999 21.0094 18.2604 21.4062C18.221 21.803 18.5106 22.1566 18.9075 22.1961C19.3043 22.2356 19.658 21.9459 19.6974 21.5492Z" fill="#8A94DB"/>
<path id="Vector_17" d="M24.8911 22.4987C23.7075 22.4987 22.748 23.4581 22.748 24.6417C22.748 25.8253 23.7075 26.7847 24.8911 26.7847C26.0747 26.7847 27.0341 25.8253 27.0341 24.6417C27.0341 23.4581 26.0746 22.4987 24.8911 22.4987ZM24.8911 25.7132C24.2993 25.7132 23.8196 25.2335 23.8196 24.6417C23.8196 24.0499 24.2993 23.5702 24.8911 23.5702C25.4829 23.5702 25.9626 24.0499 25.9626 24.6417C25.9626 25.2335 25.4829 25.7132 24.8911 25.7132Z" fill="#D6E0F4"/>
</g>
</g>
</g>
<defs>
<clipPath id="clip0_82_1785">
<rect width="20" height="20" fill="white" transform="translate(10 10)"/>
</clipPath>
</defs>
</svg>
