<svg width="40" height="40" viewBox="0 0 40 40" fill="none" xmlns="http://www.w3.org/2000/svg">
<g id="Icon - Award">
<circle id="Icon Bg" cx="20" cy="20" r="20" fill="#F9F7F7"/>
<g id="delivery-truck 2">
<g id="Flat">
<g id="Group">
<g id="Group_2">
<path id="Vector" d="M17.5 17.5H14.6875V17.1875L15.8215 15.4864C15.8572 15.4329 15.9055 15.3891 15.9622 15.3587C16.0189 15.3284 16.0823 15.3125 16.1466 15.3125H17.5V17.5Z" fill="#FA5D3F"/>
<path id="Vector_2" d="M17.5 22.5V20.625H11.7188C11.5115 20.625 11.3128 20.7073 11.1663 20.8538C11.0198 21.0003 10.9375 21.199 10.9375 21.4062V25.2344C10.9375 25.338 10.9787 25.4373 11.0519 25.5106C11.1252 25.5838 11.2245 25.625 11.3281 25.625H28.6719C28.7755 25.625 28.8748 25.5838 28.9481 25.5106C29.0213 25.4373 29.0625 25.338 29.0625 25.2344V22.5H17.5Z" fill="#FA5D3F"/>
<path id="Vector_3" d="M17.5 20.9375H11.5625V20.625L13.7115 17.6701C13.8202 17.5206 13.9628 17.399 14.1275 17.3151C14.2922 17.2312 14.4744 17.1875 14.6593 17.1875H17.5V20.9375Z" fill="#FEECE8"/>
<path id="Vector_4" d="M17.5781 14.0625H28.6719C28.7755 14.0625 28.8748 14.1037 28.9481 14.1769C29.0213 14.2502 29.0625 14.3495 29.0625 14.4531V22.8125H17.1875V14.4531C17.1875 14.3495 17.2287 14.2502 17.3019 14.1769C17.3752 14.1037 17.4745 14.0625 17.5781 14.0625Z" fill="#FAC850"/>
<path id="Vector_5" d="M14.0625 28.125C15.098 28.125 15.9375 27.2855 15.9375 26.25C15.9375 25.2145 15.098 24.375 14.0625 24.375C13.027 24.375 12.1875 25.2145 12.1875 26.25C12.1875 27.2855 13.027 28.125 14.0625 28.125Z" fill="#4D4D4D"/>
<path id="Vector_6" d="M25.9375 28.125C26.973 28.125 27.8125 27.2855 27.8125 26.25C27.8125 25.2145 26.973 24.375 25.9375 24.375C24.902 24.375 24.0625 25.2145 24.0625 26.25C24.0625 27.2855 24.902 28.125 25.9375 28.125Z" fill="#4D4D4D"/>
<path id="Vector_7" d="M15 21.5625H16.25V22.1875H15V21.5625Z" fill="#FFFEFD"/>
<path id="Vector_8" d="M11.7188 23.125H10.9375V21.4062C10.9375 21.199 11.0198 21.0003 11.1663 20.8538C11.3128 20.7073 11.5115 20.625 11.7188 20.625H12.5V22.3438C12.5 22.551 12.4177 22.7497 12.2712 22.8962C12.1247 23.0427 11.926 23.125 11.7188 23.125Z" fill="#FAC850"/>
<g id="Group_3">
<path id="Vector_9" d="M22.4502 21.0608C21.4559 20.3365 20.7774 19.2585 20.5544 18.0488L20.3203 16.5625L23.1289 15.3102L25.9375 16.5625L25.701 18.0612C25.4762 19.2812 24.788 20.3669 23.7805 21.0908L23.1314 21.5625L22.4502 21.0608Z" fill="#9FDC6E"/>
<path id="Vector_10" d="M22.8129 19.375C22.7718 19.3751 22.7312 19.367 22.6933 19.3513C22.6553 19.3356 22.6209 19.3125 22.5919 19.2835L21.6544 18.346L22.0963 17.9041L22.8129 18.6206L24.4669 16.9666L24.9088 17.4085L23.0338 19.2835C23.0048 19.3125 22.9704 19.3356 22.9325 19.3513C22.8946 19.367 22.8539 19.3751 22.8129 19.375Z" fill="#FBFEF9"/>
</g>
<g id="Group_4">
<path id="Vector_11" d="M18.125 15H18.75V15.625H18.125V15Z" fill="#FFFAF6"/>
<path id="Vector_12" d="M18.125 21.25H18.75V21.875H18.125V21.25Z" fill="#FFFAF6"/>
<path id="Vector_13" d="M27.5 15H28.125V15.625H27.5V15Z" fill="#FFFAF6"/>
<path id="Vector_14" d="M27.5 21.25H28.125V21.875H27.5V21.25Z" fill="#FFFAF6"/>
</g>
<path id="Vector_15" d="M14.0625 26.875C14.4077 26.875 14.6875 26.5952 14.6875 26.25C14.6875 25.9048 14.4077 25.625 14.0625 25.625C13.7173 25.625 13.4375 25.9048 13.4375 26.25C13.4375 26.5952 13.7173 26.875 14.0625 26.875Z" fill="#FEFEFE"/>
<path id="Vector_16" d="M25.9375 26.875C26.2827 26.875 26.5625 26.5952 26.5625 26.25C26.5625 25.9048 26.2827 25.625 25.9375 25.625C25.5923 25.625 25.3125 25.9048 25.3125 26.25C25.3125 26.5952 25.5923 26.875 25.9375 26.875Z" fill="#FEFEFE"/>
</g>
<g id="Group_5">
<g id="Group_6">
<path id="Vector_17" d="M10.625 15H13.125V15.625H10.625V15Z" fill="white"/>
<path id="Vector_18" d="M13.75 15H14.375V15.625H13.75V15Z" fill="white"/>
</g>
<g id="Group_7">
<path id="Vector_19" d="M13.4375 11.875H18.4375V12.5H13.4375V11.875Z" fill="white"/>
<path id="Vector_20" d="M19.0625 11.875H19.6875V12.5H19.0625V11.875Z" fill="white"/>
</g>
<g id="Group_8">
<path id="Vector_21" d="M21.875 12.5H26.875V13.125H21.875V12.5Z" fill="white"/>
<path id="Vector_22" d="M27.5 12.5H28.125V13.125H27.5V12.5Z" fill="white"/>
</g>
</g>
</g>
<g id="Group_9">
<path id="Vector_23" d="M16.5625 27.1875H22.1875V27.8125H16.5625V27.1875Z" fill="white"/>
<path id="Vector_24" d="M22.8125 27.1875H23.4375V27.8125H22.8125V27.1875Z" fill="white"/>
</g>
</g>
</g>
</g>
</svg>
